<svg width="35" height="35" viewBox="0 0 35 35" fill="none" xmlns="http://www.w3.org/2000/svg">
<path d="M29.979 8.15869L26.3389 4.52197C25.8945 4.07764 25.2998 3.82812 24.6709 3.82812C24.042 3.82812 23.4473 4.07422 23.0029 4.52197L19.0825 8.43555C18.6382 8.87988 18.3887 9.47803 18.3887 10.1069C18.3887 10.7393 18.6348 11.3306 19.0825 11.7783L22.145 14.8442C21.4474 16.4698 20.4449 17.9467 19.1919 19.1953C17.9375 20.4565 16.4712 21.4512 14.8442 22.1553L11.7817 19.0894C11.3374 18.645 10.7427 18.3955 10.1138 18.3955C9.80357 18.3944 9.49625 18.4551 9.20984 18.5743C8.92342 18.6934 8.66367 18.8685 8.4458 19.0894L4.52197 23.0029C4.07764 23.4473 3.82812 24.0454 3.82812 24.6743C3.82812 25.3066 4.07422 25.8979 4.52197 26.3457L8.15869 29.9824C8.91748 30.7412 9.96338 31.1753 11.0366 31.1753C11.2588 31.1753 11.4741 31.1582 11.6929 31.1206C16.2183 30.3755 20.7095 27.9658 24.3359 24.3428C27.959 20.7129 30.3652 16.2217 31.1172 11.6929C31.3325 10.4077 30.9019 9.08496 29.979 8.15869ZM28.6938 11.2861C28.0273 15.3159 25.8604 19.3354 22.5962 22.5996C19.332 25.8638 15.3159 28.0308 11.2861 28.6973C10.7803 28.7827 10.2607 28.6118 9.8916 28.2461L6.31982 24.6743L10.1069 20.8838L14.2017 24.9854L14.2324 25.0161L14.9707 24.7427C17.2092 23.9196 19.242 22.6197 20.9282 20.9329C22.6144 19.2462 23.9136 17.2129 24.7358 14.9741L25.0093 14.2358L20.8804 10.1104L24.6675 6.31982L28.2393 9.8916C28.6084 10.2607 28.7793 10.7803 28.6938 11.2861Z" fill="white"/>
</svg>
