<svg width="67" height="49" viewBox="0 0 67 49" fill="none" xmlns="http://www.w3.org/2000/svg">
<path d="M19.3435 36.6128C19.4979 37.4256 18.6835 38.0952 18.0832 38.5656C17.745 38.8306 17.1445 39.0106 16.2804 39.1094V39.5235H25.8405V39.1094C25.2395 39.0229 24.7877 38.924 24.4847 38.8128C24.1867 38.6954 23.9186 38.5285 23.6852 38.3122C23.3574 37.9971 23.0494 37.5335 22.7713 36.9156C22.4883 36.3038 22.1108 35.278 21.6341 33.8381L15.307 14.8104H14.4777L9.15383 31.8852C8.6671 33.4426 8.2747 34.6105 7.98171 35.3892C7.6837 36.1678 7.38084 36.8043 7.07293 37.2988C6.70541 37.9167 6.32302 38.3617 5.93565 38.6397C5.54826 38.9179 5.09632 39.0724 4.58472 39.1094V39.5235H11.1005V39.1094C10.5096 39.0476 10.0229 38.8561 9.64541 38.5285C9.37232 38.2875 9.15868 37.9723 8.99979 37.5892C8.83597 37.1998 8.75648 36.7858 8.75648 36.3409C8.75648 35.5807 8.97492 34.5363 9.41198 33.2077L9.77455 32.083L10.5344 29.5864L14.2899 18.1121C15.7547 22.6644 18.488 32.1093 19.3435 36.6128Z" fill="white"/>
<path d="M25.0552 30.0235H28.3459V30.141C28.0966 30.1649 27.9171 30.2041 27.8074 30.2586C27.7044 30.3097 27.6213 30.3897 27.5581 30.4988C27.495 30.6044 27.4634 30.7202 27.4634 30.8462C27.4634 30.9348 27.4717 31.0132 27.4883 31.0813C27.505 31.1494 27.5548 31.2976 27.6379 31.5259L29.1138 35.6395L30.5448 32.0318C30.7442 31.5242 30.8439 31.1545 30.8439 30.9229C30.8439 30.7934 30.824 30.6725 30.7841 30.5601C30.7442 30.4477 30.691 30.3608 30.6245 30.2995C30.5581 30.2415 30.4849 30.2007 30.4052 30.1768C30.3254 30.153 30.2223 30.141 30.096 30.141V30.0235H32.3148V30.141C32.132 30.1581 31.9724 30.2041 31.8361 30.279C31.7032 30.354 31.5752 30.4681 31.4522 30.6214C31.3691 30.7304 31.281 30.8803 31.188 31.0711C31.0982 31.2584 30.9736 31.5497 30.814 31.9449L28.7697 36.9987H28.5603L26.5759 31.7763C26.3166 31.0915 26.1089 30.6572 25.9527 30.4732C25.8529 30.3574 25.7299 30.2739 25.5837 30.2228C25.4408 30.1683 25.2646 30.141 25.0552 30.141V30.0235Z" fill="white"/>
<path d="M37.7495 30.0235L37.8343 31.7098L37.7196 31.7149C37.6764 31.4288 37.6049 31.192 37.5052 31.0046C37.4055 30.8173 37.2609 30.6521 37.0714 30.509C36.9152 30.3897 36.7307 30.3063 36.518 30.2586C36.3053 30.2075 36.0227 30.1819 35.6704 30.1819H34.5286V33.248H34.8277C35.1302 33.248 35.3579 33.2275 35.5108 33.1866C35.6637 33.1458 35.7884 33.0725 35.8848 32.9669C35.9778 32.8681 36.046 32.7523 36.0892 32.6194C36.1357 32.4832 36.174 32.2839 36.2039 32.0215L36.3186 32.0267L36.2986 34.7656H36.1839C36.154 34.5033 36.1091 34.2921 36.0493 34.132C35.9928 33.9719 35.913 33.8356 35.81 33.7232C35.7103 33.6142 35.5806 33.5341 35.4211 33.483C35.2615 33.4319 35.0588 33.4064 34.8128 33.4064H34.5286V34.5766C34.5286 35.0433 34.5402 35.384 34.5635 35.5986C34.5868 35.8098 34.6316 35.9869 34.6981 36.13C34.8111 36.3753 34.9823 36.5559 35.2117 36.6717C35.4443 36.7841 35.7502 36.8403 36.1291 36.8403C36.528 36.8403 36.862 36.7892 37.1313 36.687C37.4005 36.5814 37.6199 36.4196 37.7894 36.2016C37.9091 36.0551 38.0055 35.8882 38.0786 35.7008C38.1551 35.5134 38.2249 35.2664 38.288 34.9598L38.4027 34.9649L38.3379 36.9987H32.3896V36.8812C32.5791 36.871 32.732 36.8437 32.8483 36.7994C32.968 36.7552 33.0743 36.6836 33.1674 36.5848C33.2704 36.4758 33.3403 36.3378 33.3768 36.1709C33.4167 36.0006 33.4366 35.7417 33.4366 35.3942V31.6281C33.4366 31.2806 33.4167 31.0234 33.3768 30.8565C33.3403 30.6861 33.2704 30.5464 33.1674 30.4374C33.0777 30.3386 32.9729 30.2671 32.8533 30.2228C32.7369 30.1785 32.5824 30.1513 32.3896 30.141V30.0235H37.7495Z" fill="white"/>
<path d="M40.0032 30.9484V35.3942C40.0032 35.7451 40.0215 36.004 40.0581 36.1709C40.0979 36.3378 40.1694 36.4758 40.2725 36.5848C40.3655 36.6836 40.4702 36.7552 40.5866 36.7994C40.7062 36.8437 40.8608 36.871 41.0503 36.8812V36.9987H38.7517V36.8812C38.9412 36.871 39.0941 36.8437 39.2104 36.7994C39.3301 36.7552 39.4365 36.6836 39.5295 36.5848C39.6326 36.4758 39.7024 36.3378 39.739 36.1709C39.7788 36.0006 39.7988 35.7417 39.7988 35.3942V31.623C39.7988 31.2789 39.7788 31.0234 39.739 30.8565C39.7024 30.6861 39.6326 30.5464 39.5295 30.4374C39.4398 30.3386 39.3351 30.2671 39.2154 30.2228C39.0991 30.1785 38.9445 30.1513 38.7517 30.141V30.0235H40.6713L44.72 35.3175V31.6281C44.72 31.2772 44.7 31.0183 44.6601 30.8513C44.6236 30.6844 44.5538 30.5464 44.4507 30.4374C44.3577 30.3386 44.2513 30.2671 44.1316 30.2228C44.0153 30.1785 43.8624 30.1513 43.6729 30.141V30.0235H45.9715V30.141C45.6391 30.141 45.3798 30.2398 45.1936 30.4374C45.0906 30.5464 45.0191 30.6861 44.9792 30.8565C44.9427 31.0234 44.9244 31.2789 44.9244 31.623V36.9987H44.7L40.0032 30.9484Z" fill="white"/>
<path d="M52.6028 29.9877L52.6627 32.2719H52.548C52.5114 32.1731 52.4832 32.0982 52.4632 32.0471C52.3469 31.7201 52.2522 31.4765 52.179 31.3164C52.0494 31.0302 51.8616 30.7679 51.6156 30.5294C51.4295 30.3489 51.2367 30.2177 51.0372 30.1359C50.8378 30.0542 50.6134 30.0133 50.3641 30.0133C49.9885 30.0133 49.6628 30.0968 49.3869 30.2637C49.1442 30.4102 48.9182 30.6214 48.7088 30.8973C48.4994 31.1699 48.3282 31.4816 48.1952 31.8325C48.0057 32.3264 47.911 32.8886 47.911 33.5188C47.911 34.0536 47.9758 34.5357 48.1055 34.9649C48.2351 35.3942 48.4246 35.7536 48.6739 36.0432C49.1326 36.5814 49.7409 36.8505 50.4988 36.8505C50.8777 36.8505 51.2184 36.7841 51.5209 36.6513C51.8234 36.515 52.0577 36.3242 52.2239 36.0789C52.4167 35.7962 52.5563 35.4146 52.6427 34.9343L52.7574 34.9547C52.6943 35.493 52.5513 35.9205 52.3286 36.2373C52.1159 36.5405 51.8217 36.7722 51.4461 36.9323C51.0738 37.0924 50.6417 37.1725 50.1497 37.1725C49.691 37.1725 49.2523 37.1026 48.8334 36.963C48.1653 36.7381 47.6434 36.3327 47.2678 35.7468C46.8922 35.1574 46.7044 34.4556 46.7044 33.6414C46.7044 33.018 46.8141 32.444 47.0335 31.9193C47.2529 31.3913 47.5587 30.9672 47.9509 30.6469C48.2534 30.4017 48.614 30.2075 49.0329 30.0644C49.455 29.9179 49.8772 29.8447 50.2993 29.8447C50.7015 29.8447 51.127 29.923 51.5757 30.0797L51.9846 30.2177C52.0644 30.2484 52.1342 30.2637 52.194 30.2637C52.2771 30.2637 52.3452 30.2279 52.3984 30.1564C52.4217 30.1223 52.4499 30.0661 52.4832 29.9877H52.6028Z" fill="white"/>
<path d="M60.2514 36.9987H56.9756V36.8812C57.2714 36.854 57.4775 36.8029 57.5938 36.7279C57.7999 36.595 57.903 36.4111 57.903 36.176C57.903 36.0363 57.8564 35.849 57.7634 35.6139L57.6786 35.3993L57.1999 34.1933H55.0061L54.7468 34.8985L54.6222 35.2153C54.4726 35.5901 54.3978 35.8847 54.3978 36.0994C54.3978 36.2254 54.4244 36.3429 54.4776 36.452C54.5341 36.561 54.6089 36.6496 54.702 36.7177C54.8316 36.8097 54.9978 36.8642 55.2006 36.8812V36.9987H52.9668V36.8812C53.143 36.871 53.2976 36.8267 53.4305 36.7483C53.5635 36.67 53.6931 36.5439 53.8194 36.3702C53.9258 36.2305 54.0288 36.0517 54.1286 35.8336C54.2316 35.6122 54.3662 35.2818 54.5324 34.8423L56.3573 30.0235H56.6415L58.8104 35.3942C58.9733 35.7996 59.1029 36.0892 59.1993 36.2629C59.2957 36.4366 59.4004 36.5678 59.5134 36.6564C59.5932 36.7177 59.6846 36.7654 59.7877 36.7994C59.8907 36.8301 60.0453 36.8574 60.2514 36.8812V36.9987ZM57.1202 33.9838L56.0731 31.3368L55.0859 33.9838H57.1202Z" fill="white"/>
<path d="M62.53 33.5852V35.3942C62.53 35.7417 62.5483 36.0006 62.5848 36.1709C62.6247 36.3378 62.6962 36.4758 62.7992 36.5848C62.889 36.6802 62.992 36.7518 63.1084 36.7994C63.228 36.8437 63.3842 36.871 63.577 36.8812V36.9987H60.391V36.8812C60.5838 36.871 60.7383 36.8437 60.8547 36.7994C60.9743 36.7518 61.079 36.6802 61.1688 36.5848C61.2752 36.4758 61.3466 36.3378 61.3832 36.1709C61.4198 36.004 61.438 35.7451 61.438 35.3942V31.6281C61.438 31.2772 61.4198 31.0183 61.3832 30.8513C61.3466 30.6844 61.2752 30.5464 61.1688 30.4374C61.079 30.3386 60.9743 30.2671 60.8547 30.2228C60.735 30.1785 60.5805 30.1513 60.391 30.141V30.0235H62.7942C63.1964 30.0235 63.4607 30.0252 63.587 30.0286C64.1022 30.0525 64.5061 30.124 64.7986 30.2432C65.1277 30.3795 65.382 30.5839 65.5615 30.8565C65.7443 31.1256 65.8357 31.439 65.8357 31.7967C65.8357 32.3282 65.6396 32.754 65.2474 33.0742C65.1277 33.1696 64.9947 33.248 64.8485 33.3093C64.7055 33.3706 64.5127 33.4285 64.2701 33.483C64.4695 33.5682 64.6175 33.6568 64.7138 33.7487C64.7903 33.8203 64.8601 33.9106 64.9233 34.0196C64.9864 34.1252 65.0812 34.3143 65.2075 34.5868C65.5033 35.2102 65.726 35.6667 65.8756 35.9563C66.0285 36.2425 66.1565 36.4503 66.2595 36.5797C66.3426 36.6853 66.4224 36.7586 66.4988 36.7994C66.5786 36.8403 66.6866 36.8676 66.8229 36.8812V36.9987H65.1676C65.0845 36.8114 65.0313 36.6921 65.008 36.641L64.659 35.8285C64.4496 35.3414 64.2385 34.9104 64.0258 34.5357C63.813 34.1644 63.6186 33.9106 63.4424 33.7743C63.3527 33.7062 63.2563 33.6585 63.1532 33.6312C63.0502 33.6006 62.9239 33.5852 62.7743 33.5852H62.53ZM62.53 33.4728H62.7194C63.1316 33.4728 63.4258 33.449 63.602 33.4013C63.7815 33.3536 63.9493 33.2548 64.1056 33.1049C64.4546 32.7642 64.6291 32.3418 64.6291 31.8376C64.6291 31.5685 64.5776 31.3164 64.4745 31.0813C64.3748 30.8428 64.2352 30.6469 64.0557 30.4936C63.9161 30.3778 63.7499 30.2978 63.5571 30.2535C63.3643 30.2058 63.0901 30.1819 62.7344 30.1819H62.53V33.4728Z" fill="white"/>
<path d="M66.7528 42.0492H4.51367V42.2634H66.7528V42.0492Z" fill="white" stroke="white" stroke-width="0.2" stroke-miterlimit="22.9256"/>
<path d="M58.0781 25.4743C54.4917 25.7575 56.2642 30.924 59.9288 28.7815C62.1534 27.481 61.6191 22.5565 57.4452 22.9893C53.792 23.3681 52.6537 27.7045 54.759 29.9302C57.5569 32.8881 62.6957 31.4089 64.1265 27.4552C65.5171 23.1295 62.9641 18.8972 57.6487 16.3762C46.9012 11.2787 37.8952 19.186 30.3386 25.2685C28.4389 26.7976 25.9689 28.5413 23.4478 29.1935C18.098 30.5776 12.0354 29.8443 8.17354 26.3868C3.55293 22.2499 3.13231 13.5798 7.72817 9.36924C10.713 6.63472 15.0768 5.6485 19.1269 7.43727C23.3661 9.30944 25.3029 15.485 22.1861 19.3783C21.6307 20.0719 20.7507 20.4478 19.9925 20.6188" stroke="white" stroke-width="0.75" stroke-miterlimit="22.9256"/>
<path fill-rule="evenodd" clip-rule="evenodd" d="M23.4837 16.6491C23.3646 18.2717 21.7497 18.3121 20.8802 19.2294C20.6087 19.5158 19.8136 19.382 19.2758 19.3406C19.1264 19.3291 18.622 19.2612 18.6381 19.3306C18.8084 20.0677 19.3781 20.8759 20.2754 20.9451C20.4373 20.9576 21.062 21.1013 21.0461 21.3178C21.0387 21.4191 21.2804 22.2041 21.298 21.9643C21.3447 21.3273 22.6258 20.5848 22.7958 19.7682C22.9852 18.8591 23.3986 17.8085 23.4837 16.6491Z" fill="white" stroke="white" stroke-width="0.2" stroke-miterlimit="22.9256"/>
<path fill-rule="evenodd" clip-rule="evenodd" d="M9.23462 5.56101C7.67097 5.56101 6.48049 7.49504 5.21474 6.667C3.73587 5.69949 4.99079 4.0185 4.10155 2.94426C3.65631 2.40642 2.89483 1.62086 2.77545 1.74253C2.61876 1.90224 2.89816 4.54871 2.45022 5.79619C1.26426 9.09906 -0.113337 14.2936 2.03231 18.0197C2.49332 18.8203 4.5392 23.3936 4.5392 22.5502C4.5392 21.2289 3.38614 19.6023 3.34544 18.0978C3.28972 16.0396 3.29294 13.2565 4.05894 11.4183C4.6952 9.89178 7.94902 5.98158 9.23462 5.56101Z" fill="white" stroke="white" stroke-width="0.2" stroke-miterlimit="22.9256"/>
<path fill-rule="evenodd" clip-rule="evenodd" d="M11.5027 5.52193C15.2193 -1.239 23.0815 4.16846 26.3649 1.61702C27.1641 0.995992 27.7426 0.853946 27.924 0.706276C28.3269 0.378441 28.1982 1.89557 27.7115 3.03737C27.4567 3.63545 26.9299 4.05973 26.7031 4.21458C21.8594 7.52163 25.5748 8.01576 26.9707 10.848C29.0957 15.1601 27.1549 18.2101 24.435 21.4957C23.2763 22.8955 25.1721 19.9315 25.2706 19.7382C26.0442 18.2197 26.8564 15.3084 26.1945 12.8037C25.8146 11.3663 24.7782 10.0819 23.9101 9.16524C22.6689 7.85416 21.3086 6.55432 19.6189 5.82199C16.9834 4.67971 13.4292 4.38742 11.5027 5.52193Z" fill="white" stroke="white" stroke-width="0.2" stroke-miterlimit="22.9256"/>
<path d="M11.051 28.6137L10.9853 28.7379L10.6198 28.5305L10.2606 28.3178L9.90793 28.0993L9.56229 27.8744L9.22411 27.6426L8.89373 27.4033L8.5716 27.1559L8.25814 26.9001L7.95376 26.635L7.65886 26.3604L7.37395 26.0755L7.09935 25.78L6.83552 25.4732L6.58289 25.1545L6.3419 24.8236L6.11297 24.4798L5.89651 24.1227L5.69296 23.7516L5.50277 23.3662L5.32629 22.9658L5.16396 22.5501L5.01624 22.1183L4.88348 21.6702L4.76611 21.2051L4.66454 20.7224L4.57912 20.2218L4.51033 19.7027L4.45853 19.1645L4.42412 18.6067L4.40747 18.0288L4.40899 17.4302L4.42912 16.8105L4.5668 16.8173L4.54684 17.4328L4.54532 18.0269L4.56181 18.6002L4.59594 19.1531L4.64725 19.6863L4.71538 20.2002L4.79986 20.6954L4.90027 21.1725L5.0162 21.632L5.14725 22.0745L5.29304 22.5005L5.45311 22.9105L5.62712 23.3052L5.8146 23.6851L6.01518 24.0508L6.22849 24.4027L6.45411 24.7415L6.69162 25.0677L6.94073 25.3819L7.20097 25.6845L7.47199 25.9762L7.75338 26.2575L8.04475 26.5289L8.34571 26.7909L8.65585 27.0441L8.97485 27.2891L9.30219 27.5262L9.63756 27.7561L9.98055 27.9792L10.3307 28.1962L10.6877 28.4075L11.051 28.6137ZM18.884 29.978L18.8999 30.1183L18.6324 30.1474L18.3642 30.1714L18.0956 30.1901L17.8268 30.2037L17.558 30.2122L17.2893 30.2158L17.021 30.2144L16.7532 30.2081L16.4862 30.1969L16.2201 30.181L15.9551 30.1603L15.6914 30.135L15.4292 30.1051L15.1687 30.0707L14.91 30.0318L14.6534 29.9884L14.3991 29.9407L14.1473 29.8886L13.898 29.8323L13.6517 29.7718L13.4083 29.7071L13.1682 29.6384L12.9314 29.5655L12.6983 29.4888L12.4689 29.4081L12.2435 29.3236L12.0222 29.2352L11.8053 29.143L11.5931 29.0472L11.3854 28.9477L11.1828 28.8446L10.9853 28.7379L11.051 28.6137L11.2456 28.7187L11.4453 28.8204L11.65 28.9185L11.8596 29.0131L12.0737 29.1041L12.2922 29.1914L12.5149 29.275L12.7417 29.3547L12.9723 29.4307L13.2065 29.5027L13.4441 29.5707L13.685 29.6347L13.9289 29.6946L14.1757 29.7504L14.4252 29.8019L14.6771 29.8492L14.9312 29.8922L15.1875 29.9307L15.4456 29.9649L15.7054 29.9945L15.9667 30.0196L16.2293 30.04L16.493 30.0558L16.7576 30.0668L17.0229 30.0731L17.2888 30.0745L17.555 30.071L17.8213 30.0625L18.0875 30.049L18.3536 30.0305L18.6191 30.0068L18.884 29.978ZM26.2567 27.5613L26.3192 27.6872L26.3259 27.6832L26.1538 27.7968L25.9761 27.9083L25.7931 28.0177L25.6049 28.1249L25.4116 28.23L25.2135 28.3328L25.0108 28.4334L24.8035 28.5317L24.5919 28.6277L24.376 28.7213L24.1562 28.8125L23.9324 28.9014L23.705 28.9878L23.4741 29.0716L23.2397 29.1531L23.0021 29.2319L22.7616 29.3082L22.5181 29.3818L22.2719 29.4528L22.0232 29.5211L21.7721 29.5867L21.5188 29.6495L21.2634 29.7095L21.0061 29.7667L20.7471 29.8211L20.4866 29.8725L20.2247 29.921L19.9615 29.9665L19.6973 30.0091L19.4321 30.0486L19.1663 30.085L18.8999 30.1183L18.884 29.978L19.1488 29.9448L19.4131 29.9086L19.6767 29.8694L19.9393 29.8271L20.201 29.7818L20.4613 29.7336L20.7203 29.6825L20.9777 29.6285L21.2334 29.5716L21.4872 29.512L21.7389 29.4496L21.9883 29.3844L22.2354 29.3166L22.4799 29.246L22.7217 29.1729L22.9606 29.0972L23.1964 29.0189L23.4289 28.9382L23.658 28.8549L23.8836 28.7692L24.1054 28.6812L24.3233 28.5907L24.5371 28.498L24.7467 28.403L24.9518 28.3057L25.1524 28.2062L25.3482 28.1045L25.5391 28.0008L25.7249 27.8949L25.9054 27.787L26.0805 27.6772L26.25 27.5653L26.2567 27.5613ZM26.25 27.5653L26.2532 27.5631L26.2567 27.5613L26.25 27.5653ZM30.3302 24.8202L30.4078 24.9369L30.2879 25.0211L30.1674 25.1065L30.0464 25.1928L29.9249 25.2802L29.8029 25.3683L29.6804 25.4572L29.5574 25.5467L29.4339 25.6367L29.3098 25.7271L29.1853 25.8179L29.0602 25.9089L28.9347 25.9999L28.8086 26.091L28.682 26.1821L28.555 26.2728L28.4274 26.3634L28.2994 26.4535L28.1708 26.5431L28.0418 26.6321L27.9122 26.7204L27.7822 26.8079L27.6517 26.8944L27.5206 26.98L27.3891 27.0644L27.2571 27.1476L27.1246 27.2295L26.9916 27.31L26.8581 27.3889L26.7241 27.4662L26.5897 27.5417L26.4547 27.6155L26.3192 27.6872L26.2567 27.5613L26.3906 27.4903L26.5241 27.4174L26.6572 27.3427L26.7898 27.2661L26.9221 27.1879L27.054 27.1082L27.1854 27.027L27.3164 26.9444L27.447 26.8605L27.5772 26.7755L27.7069 26.6895L27.8362 26.6025L27.9651 26.5146L28.0936 26.4261L28.2216 26.3368L28.3492 26.247L28.4763 26.1568L28.603 26.0663L28.7293 25.9755L28.8551 25.8845L28.9805 25.7936L29.1054 25.7027L29.2299 25.612L29.354 25.5216L29.4775 25.4315L29.6007 25.3419L29.7234 25.2529L29.8457 25.1646L29.9675 25.0771L30.0888 24.9904L30.2097 24.9047L30.3302 24.8202ZM36.8331 19.7162L36.9182 19.8273L36.706 19.9984L36.4951 20.1688L36.2855 20.3388L36.077 20.5081L35.8696 20.6769L35.6633 20.845L35.4579 21.0126L35.2534 21.1794L35.0497 21.3456L34.8467 21.5111L34.6443 21.6759L34.4426 21.84L34.2413 22.0033L34.0404 22.1658L33.8399 22.3276L33.6396 22.4885L33.4395 22.6486L33.2395 22.8079L33.0395 22.9662L32.8395 23.1238L32.6394 23.2803L32.4391 23.436L32.2385 23.5907L32.0375 23.7444L31.8361 23.8972L31.6342 24.0489L31.4317 24.1996L31.2286 24.3493L31.0247 24.4978L30.82 24.6453L30.6144 24.7917L30.4078 24.9369L30.3302 24.8202L30.5361 24.6754L30.741 24.5295L30.9451 24.3825L31.1484 24.2343L31.351 24.0851L31.5529 23.9348L31.7543 23.7834L31.9553 23.631L32.1558 23.4776L32.356 23.3233L32.5559 23.1679L32.7557 23.0116L32.9554 22.8543L33.1551 22.6962L33.3548 22.5372L33.5546 22.3772L33.7547 22.2165L33.9551 22.0549L34.1558 21.8925L34.3569 21.7292L34.5586 21.5653L34.7609 21.4005L34.9638 21.2351L35.1675 21.0689L35.372 20.902L35.5775 20.7345L35.7839 20.5663L35.9913 20.3975L36.1999 20.228L36.4097 20.0579L36.6207 19.8874L36.8331 19.7162ZM40.8231 17.3404L40.8971 17.4596L40.8145 17.5125L40.7236 17.5689L40.625 17.6286L40.519 17.6914L40.4064 17.7572L40.2877 17.8257L40.1634 17.8968L40.034 17.9701L39.9002 18.0455L39.7625 18.1227L39.6216 18.2015L39.4779 18.2818L39.332 18.3631L39.1845 18.4455L39.036 18.5286L38.8871 18.6121L38.7384 18.6959L38.5903 18.7797L38.4435 18.8634L38.2986 18.9466L38.1562 19.0291L38.0168 19.1109L37.8809 19.1915L37.7493 19.2707L37.6224 19.3484L37.5009 19.4242L37.3854 19.498L37.2765 19.5695L37.1746 19.6385L37.0806 19.7047L36.9949 19.7677L36.9182 19.8273L36.8331 19.7162L36.913 19.654L37.0014 19.589L37.0976 19.5213L37.2013 19.4511L37.3118 19.3786L37.4287 19.3039L37.5513 19.2274L37.6791 19.1491L37.8115 19.0694L37.948 18.9884L38.088 18.9063L38.231 18.8235L38.3763 18.74L38.5235 18.6561L38.6718 18.5721L38.8208 18.4882L38.9699 18.4046L39.1185 18.3214L39.266 18.2391L39.4119 18.1577L39.5556 18.0775L39.6964 17.9987L39.8339 17.9216L39.9674 17.8464L40.0964 17.7732L40.2203 17.7025L40.3385 17.6343L40.4504 17.5689L40.5554 17.5066L40.6529 17.4476L40.7423 17.3921L40.8231 17.3404ZM40.4728 17.5685L40.841 17.3284L41.2101 17.1717L40.9154 17.448L40.5472 17.6882L40.4728 17.5685Z" fill="white"/>
<path fill-rule="evenodd" clip-rule="evenodd" d="M49.2689 13.2882C47.3302 12.8799 42.2761 11.9867 41.8465 9.73313C41.5134 7.9854 43.2002 6.43936 44.4186 5.5866C44.612 5.45116 43.6948 5.3647 42.5601 5.44398C40.4418 5.59196 38.2428 7.48511 38.2428 9.62276C38.2428 10.7997 39.3515 12.3574 38.9177 13.1149C38.29 14.2111 35.9881 13.6706 35.4573 13.0597C35.4478 13.0487 35.4699 15.3534 38.8063 15.3832C40.1084 15.3948 41.369 15.085 42.6994 14.5828C44.2759 13.9879 47.1651 12.9384 49.2689 13.2882Z" fill="white" stroke="white" stroke-width="0.2" stroke-miterlimit="22.9256"/>
<path fill-rule="evenodd" clip-rule="evenodd" d="M62.1891 27.627C64.0605 23.6099 58.6455 18.6672 54.764 22.5408C54.5124 22.7918 53.6998 22.95 53.1908 22.7142C52.9295 22.5931 52.5456 22.1864 52.5606 21.8009C52.6195 20.2856 55.1899 20.5937 54.8414 20.3199C54.0298 19.6824 52.3401 20.0183 51.5832 20.651C51.0161 21.1249 50.3857 21.6878 50.005 22.3734C49.4578 23.3587 49.1939 24.7305 49.8488 25.7907C50.3816 26.653 51.3082 27.1027 51.2448 27.0956C50.4912 27.0105 49.0557 27.046 48.0599 26.6021C47.4217 26.3176 47.0322 25.6678 46.8942 25.216C46.3034 23.2828 46.841 21.3517 48.1527 20.0379C49.6497 18.5384 52.0981 17.876 52.0655 17.8361C51.9645 17.7129 51.0874 17.5185 50.4074 17.5846C45.4845 18.0639 41.9918 22.1982 39.5209 26.2736C38.7156 27.6016 38.2937 28.5568 38.2463 30.147C38.1908 32.007 36.7398 31.2951 36.2601 30.0187C34.1778 24.4787 41.9277 18.8091 49.6033 17.3449C57.1058 15.9138 65.0529 19.3133 62.1891 27.627Z" fill="white" stroke="white" stroke-width="0.2" stroke-miterlimit="22.9256"/>
<path fill-rule="evenodd" clip-rule="evenodd" d="M57.2161 25.8148C57.429 25.1924 57.6819 24.6417 58.4267 24.8281C58.5102 24.849 58.8936 24.946 58.9516 24.9276C59.4405 24.7731 58.6967 25.1676 58.5467 25.2227C58.4981 25.2405 58.8132 25.6157 58.8778 25.9235C58.9266 26.1557 58.903 26.4945 58.8381 26.4274C58.774 26.3609 58.7246 26.2282 58.6232 26.0815C58.4146 25.7799 57.5618 25.6494 57.2161 25.8148Z" fill="white" stroke="white" stroke-width="0.2" stroke-miterlimit="22.9256"/>
<path d="M6.32035 24.5881C6.29477 24.6499 7.99641 26.5061 9.93312 28.0715C11.4395 29.289 13.1012 30.2515 14.1199 30.5673C17.6176 31.6516 21.7682 30.1264 24.892 28.6923C25.9919 28.1873 27.4117 26.9924 28.7215 26.0131C30.4711 24.7049 32.2861 23.0401 34.0531 21.5602C36.5975 19.4293 39.6184 17.5698 42.7942 16.4086C44.4205 15.8141 46.3577 15.2813 48.073 14.9711" stroke="white" stroke-width="0.5" stroke-miterlimit="22.9256"/>
<path d="M6.72779 45.2465V45.8187H6.38853C6.35826 45.7001 6.32086 45.607 6.27634 45.5395C6.23182 45.4701 6.18017 45.4217 6.1214 45.3944C6.06263 45.367 5.98962 45.3533 5.90235 45.3533C5.77769 45.3533 5.66728 45.3944 5.57111 45.4765C5.47494 45.5586 5.39837 45.6837 5.34138 45.8516C5.28617 46.0195 5.25857 46.2248 5.25857 46.4676C5.25857 46.6227 5.26925 46.7651 5.29062 46.8947C5.31199 47.0224 5.3485 47.1319 5.40015 47.2232C5.45179 47.3145 5.52036 47.3856 5.60584 47.4367C5.69132 47.4878 5.79728 47.5134 5.92372 47.5134C6.0466 47.5134 6.16058 47.4888 6.26565 47.4395C6.37251 47.3902 6.48292 47.3035 6.5969 47.1794L6.74916 47.3601C6.65834 47.4623 6.5782 47.5417 6.50874 47.5983C6.43929 47.653 6.36449 47.6996 6.28435 47.7379C6.20599 47.7744 6.12763 47.8009 6.04928 47.8173C5.9727 47.8355 5.889 47.8447 5.79817 47.8447C5.46159 47.8447 5.20425 47.7306 5.02616 47.5025C4.84808 47.2725 4.75903 46.9412 4.75903 46.5086C4.75903 46.2385 4.8089 45.9994 4.90863 45.7913C5.00836 45.5814 5.14815 45.4199 5.32802 45.3068C5.50789 45.1936 5.71536 45.137 5.95044 45.137C6.09647 45.137 6.23093 45.1461 6.35381 45.1644C6.47847 45.1808 6.60313 45.2082 6.72779 45.2465Z" fill="white"/>
<path d="M9.27622 45.9419C9.22279 45.7558 9.16224 45.6198 9.09457 45.534C9.0269 45.4482 8.92094 45.4053 8.77668 45.4053H8.51222V47.1192C8.51222 47.3345 8.53449 47.4732 8.57901 47.5353C8.62531 47.5974 8.71792 47.6412 8.85682 47.6667V47.8009H7.71083V47.6667C7.85686 47.6393 7.95036 47.5919 7.99132 47.5244C8.03406 47.455 8.05543 47.3199 8.05543 47.1192V45.4053H7.79364C7.64405 45.4053 7.53542 45.4537 7.46774 45.5504C7.40007 45.6453 7.34397 45.7758 7.29945 45.9419H7.04568V45.1836H9.52732V45.9419H9.27622Z" fill="white"/>
<path d="M11.1461 48.0254C11.0482 48.2517 10.9529 48.4351 10.8603 48.5757C10.7677 48.7162 10.6653 48.8221 10.5531 48.8932C10.4427 48.9644 10.3109 49 10.1578 49C10.0598 49 9.94939 48.9881 9.82651 48.9644V48.4223H10.0643C10.0856 48.4972 10.1123 48.5492 10.1444 48.5784C10.1765 48.6076 10.2228 48.6222 10.2833 48.6222C10.3367 48.6222 10.3839 48.6112 10.4249 48.5893C10.4676 48.5693 10.5113 48.5337 10.5558 48.4826C10.6021 48.4315 10.6555 48.353 10.7161 48.2471C10.7784 48.1413 10.8478 48.0071 10.9244 47.8447L10.1765 45.7831C10.1284 45.6499 10.0892 45.5568 10.0589 45.5039C10.0304 45.4509 9.99926 45.4108 9.96542 45.3834C9.93158 45.356 9.87994 45.3341 9.81048 45.3177V45.1836H10.8977V45.3177C10.814 45.3378 10.7552 45.3579 10.7214 45.3779C10.6876 45.3962 10.6626 45.4208 10.6466 45.4519C10.6306 45.4811 10.6226 45.5194 10.6226 45.5668C10.6226 45.6161 10.6279 45.6672 10.6386 45.7202C10.6511 45.7731 10.6698 45.8351 10.6947 45.9063L11.1702 47.278L11.7044 45.9638C11.7347 45.8908 11.7579 45.8242 11.7739 45.764C11.7917 45.7019 11.8006 45.6444 11.8006 45.5915C11.8006 45.513 11.7792 45.4537 11.7365 45.4135C11.6955 45.3734 11.6234 45.3414 11.5201 45.3177V45.1836H12.5192V45.3177C12.4497 45.3323 12.3963 45.3551 12.3589 45.3862C12.3215 45.4154 12.2841 45.4628 12.2467 45.5285C12.2093 45.5924 12.1648 45.6827 12.1132 45.7996L11.1461 48.0254Z" fill="white"/>
<path d="M14.8272 48.6852C14.788 48.4296 14.748 48.2416 14.707 48.1212C14.6678 48.0007 14.618 47.9168 14.5574 47.8693C14.4969 47.8237 14.3927 47.8009 14.2449 47.8009H13.1042C12.9528 47.8009 12.8353 47.8565 12.7516 47.9679C12.6697 48.081 12.6056 48.322 12.5593 48.6906H12.3135V47.5654H12.626C12.8148 47.2935 12.9626 46.9823 13.0695 46.6318C13.1763 46.2796 13.2298 45.9565 13.2298 45.6627C13.2298 45.4564 13.1496 45.3414 12.9893 45.3177V45.1836H14.9688V45.3177C14.8512 45.3414 14.772 45.3852 14.731 45.4491C14.6901 45.5112 14.6696 45.6234 14.6696 45.7859V47.5654H15.0783V48.6852H14.8272ZM14.2128 45.4053H13.5717C13.4951 46.338 13.2939 47.058 12.968 47.5654H14.2128V45.4053Z" fill="white"/>
<path d="M17.1967 47.8009V47.6667C17.3017 47.6375 17.3739 47.5955 17.413 47.5408C17.454 47.486 17.4745 47.3701 17.4745 47.1931V46.0377L16.2964 47.2834C16.2982 47.4075 16.3178 47.4952 16.3552 47.5463C16.3926 47.5955 16.4656 47.6357 16.5742 47.6667V47.8009H15.5538V47.6667C15.6696 47.6339 15.7461 47.5882 15.7835 47.5298C15.8227 47.4696 15.8423 47.3573 15.8423 47.1931V45.7859C15.8423 45.6198 15.8218 45.5066 15.7809 45.4464C15.7417 45.3843 15.666 45.3414 15.5538 45.3177V45.1836H16.5742V45.3177C16.4656 45.3414 16.3908 45.3834 16.3499 45.4436C16.3107 45.5039 16.2911 45.618 16.2911 45.7859V46.922L17.4638 45.6736C17.462 45.4655 17.3694 45.3469 17.186 45.3177V45.1836H18.2064V45.3177C18.0978 45.3414 18.023 45.3834 17.982 45.4436C17.9411 45.5021 17.9206 45.6161 17.9206 45.7859V47.1931C17.9206 47.3592 17.9402 47.4723 17.9794 47.5326C18.0185 47.591 18.0942 47.6357 18.2064 47.6667V47.8009H17.1967Z" fill="white"/>
<path d="M20.095 47.8009V47.6667C20.1983 47.6357 20.2696 47.5919 20.3087 47.5353C20.3479 47.4787 20.3675 47.34 20.3675 47.1192V46.651H20.1778C20.0104 46.651 19.8813 46.6811 19.7905 46.7414C19.7015 46.7998 19.6329 46.8928 19.5848 47.0206L19.3364 47.6667V47.8009H18.559V47.6667C18.6819 47.6466 18.7709 47.6074 18.8262 47.549C18.8814 47.4888 18.9366 47.4039 18.9918 47.2944L19.1013 47.089C19.2171 46.8719 19.3595 46.724 19.5287 46.6455V46.6236C19.0675 46.5287 18.8368 46.2905 18.8368 45.9091C18.8368 45.6663 18.9294 45.4847 19.1147 45.3643C19.2999 45.2438 19.6124 45.1836 20.0523 45.1836H21.1048V45.3177C20.9944 45.3414 20.9196 45.3843 20.8804 45.4464C20.843 45.5084 20.8243 45.6216 20.8243 45.7859V47.1192C20.8243 47.3291 20.8394 47.4632 20.8697 47.5216C20.9018 47.5782 20.9819 47.6266 21.1101 47.6667V47.8009H20.095ZM20.3675 45.4053C20.2446 45.398 20.1209 45.3944 19.9962 45.3944C19.5492 45.3944 19.3257 45.5732 19.3257 45.931C19.3257 46.0806 19.3675 46.2038 19.4512 46.3006C19.5367 46.3955 19.7353 46.4429 20.0469 46.4429H20.3675V45.4053Z" fill="white"/>
<path d="M25.2239 48.6852C25.1848 48.4296 25.1447 48.2416 25.1037 48.1212C25.0646 48.0007 25.0147 47.9168 24.9541 47.8693C24.8936 47.8237 24.7894 47.8009 24.6416 47.8009H23.5009C23.3496 47.8009 23.232 47.8565 23.1483 47.9679C23.0664 48.081 23.0023 48.322 22.956 48.6906H22.7102V47.5654H23.0228C23.2116 47.2935 23.3594 46.9823 23.4662 46.6318C23.5731 46.2796 23.6265 45.9565 23.6265 45.6627C23.6265 45.4564 23.5464 45.3414 23.3861 45.3177V45.1836H25.3655V45.3177C25.248 45.3414 25.1687 45.3852 25.1278 45.4491C25.0868 45.5112 25.0663 45.6234 25.0663 45.7859V47.5654H25.475V48.6852H25.2239ZM24.6095 45.4053H23.9684C23.8919 46.338 23.6906 47.058 23.3647 47.5654H24.6095V45.4053Z" fill="white"/>
<path d="M27.5934 47.8009V47.6667C27.6985 47.6375 27.7706 47.5955 27.8098 47.5408C27.8507 47.486 27.8712 47.3701 27.8712 47.1931V46.0377L26.6932 47.2834C26.6949 47.4075 26.7145 47.4952 26.7519 47.5463C26.7893 47.5955 26.8623 47.6357 26.971 47.6667V47.8009H25.9505V47.6667C26.0663 47.6339 26.1429 47.5882 26.1803 47.5298C26.2195 47.4696 26.239 47.3573 26.239 47.1931V45.7859C26.239 45.6198 26.2186 45.5066 26.1776 45.4464C26.1384 45.3843 26.0627 45.3414 25.9505 45.3177V45.1836H26.971V45.3177C26.8623 45.3414 26.7876 45.3834 26.7466 45.4436C26.7074 45.5039 26.6878 45.618 26.6878 45.7859V46.922L27.8605 45.6736C27.8587 45.4655 27.7661 45.3469 27.5827 45.3177V45.1836H28.6032V45.3177C28.4945 45.3414 28.4197 45.3834 28.3788 45.4436C28.3378 45.5021 28.3173 45.6161 28.3173 45.7859V47.1931C28.3173 47.3592 28.3369 47.4723 28.3761 47.5326C28.4153 47.591 28.491 47.6357 28.6032 47.6667V47.8009H27.5934Z" fill="white"/>
<path d="M29.108 47.7269V47.1712H29.3992C29.4651 47.3391 29.5399 47.4577 29.6236 47.5271C29.7091 47.5946 29.8337 47.6284 29.9976 47.6284C30.4036 47.6284 30.6066 47.4495 30.6066 47.0918C30.6066 46.922 30.5612 46.7915 30.4704 46.7003C30.3814 46.609 30.2015 46.5634 29.9308 46.5634H29.5488V46.3033H29.9415C30.1961 46.3033 30.3671 46.2595 30.4544 46.1719C30.5416 46.0825 30.5853 45.9593 30.5853 45.8023C30.5853 45.5048 30.4161 45.356 30.0777 45.356C29.75 45.356 29.5265 45.5121 29.4072 45.8242H29.1508V45.3068C29.5159 45.1936 29.84 45.137 30.1231 45.137C30.4544 45.137 30.6948 45.1872 30.8444 45.2876C30.9958 45.388 31.0714 45.5486 31.0714 45.7694C31.0714 46.0742 30.88 46.2878 30.4971 46.4101V46.4375C30.8978 46.5287 31.0982 46.7487 31.0982 47.0973C31.0982 47.5955 30.7277 47.8447 29.9869 47.8447C29.7002 47.8447 29.4072 47.8054 29.108 47.7269Z" fill="white"/>
<path d="M33.2032 47.4094L33.1631 47.3984C33.0081 47.5609 32.8621 47.6758 32.725 47.7434C32.5896 47.8109 32.4454 47.8447 32.2922 47.8447C32.1569 47.8447 32.0376 47.8182 31.9343 47.7653C31.831 47.7105 31.7517 47.6348 31.6965 47.538C31.6413 47.4395 31.6137 47.3263 31.6137 47.1986C31.6137 46.9321 31.7419 46.7267 31.9984 46.5826C32.2566 46.4365 32.6431 46.3517 33.1577 46.3279V46.15C33.1577 45.9602 33.1399 45.8105 33.1043 45.701C33.0687 45.5915 33.0126 45.5112 32.936 45.4601C32.8594 45.409 32.757 45.3834 32.6288 45.3834C32.4899 45.3834 32.3777 45.4208 32.2922 45.4957C32.2085 45.5705 32.1453 45.6827 32.1026 45.8324H31.7526V45.4765C31.9236 45.3852 32.0661 45.3186 32.18 45.2766C32.294 45.2328 32.408 45.1991 32.522 45.1753C32.6359 45.1498 32.7517 45.137 32.8692 45.137C33.0455 45.137 33.1871 45.1662 33.294 45.2246C33.4008 45.2812 33.481 45.3688 33.5344 45.4875C33.5878 45.6061 33.6145 45.785 33.6145 46.0241V46.9768C33.6145 47.1119 33.6154 47.2077 33.6172 47.2643C33.619 47.319 33.6243 47.3701 33.6332 47.4176C33.6421 47.465 33.6555 47.5034 33.6733 47.5326C33.6911 47.5599 33.7169 47.5837 33.7508 47.6037C33.7864 47.6238 33.8434 47.6448 33.9217 47.6667V47.8009H33.1898L33.2032 47.4094ZM33.1577 46.5524C32.7962 46.5561 32.5255 46.6054 32.3457 46.7003C32.1658 46.7952 32.0759 46.9385 32.0759 47.1301C32.0759 47.2341 32.0963 47.3163 32.1373 47.3765C32.1783 47.4367 32.2299 47.4787 32.2922 47.5025C32.3546 47.5244 32.4285 47.5353 32.514 47.5353C32.6351 47.5353 32.7446 47.5052 32.8425 47.445C32.9423 47.3847 33.0197 47.3081 33.0749 47.215C33.1301 47.1219 33.1577 47.0297 33.1577 46.9385V46.5524Z" fill="white"/>
<path d="M35.9973 47.8009V47.6667C36.1024 47.6375 36.1745 47.5955 36.2137 47.5408C36.2547 47.486 36.2752 47.3701 36.2752 47.1931V46.0377L35.0971 47.2834C35.0989 47.4075 35.1185 47.4952 35.1559 47.5463C35.1933 47.5955 35.2663 47.6357 35.3749 47.6667V47.8009H34.3545V47.6667C34.4702 47.6339 34.5468 47.5882 34.5842 47.5298C34.6234 47.4696 34.643 47.3573 34.643 47.1931V45.7859C34.643 45.6198 34.6225 45.5066 34.5815 45.4464C34.5424 45.3843 34.4667 45.3414 34.3545 45.3177V45.1836H35.3749V45.3177C35.2663 45.3414 35.1915 45.3834 35.1505 45.4436C35.1114 45.5039 35.0918 45.618 35.0918 45.7859V46.922L36.2645 45.6736C36.2627 45.4655 36.1701 45.3469 35.9867 45.3177V45.1836H37.0071V45.3177C36.8985 45.3414 36.8237 45.3834 36.7827 45.4436C36.7417 45.5021 36.7213 45.6161 36.7213 45.7859V47.1931C36.7213 47.3592 36.7409 47.4723 36.78 47.5326C36.8192 47.591 36.8949 47.6357 37.0071 47.6667V47.8009H35.9973Z" fill="white"/>
<path d="M36.5637 44.0775C36.5637 44.2783 36.4791 44.4371 36.3099 44.5539C36.1407 44.6689 35.9297 44.7264 35.6768 44.7264C35.399 44.7264 35.1862 44.6707 35.0383 44.5593C34.8905 44.4462 34.8166 44.2856 34.8166 44.0775V43.9653H35.252V44.0775C35.252 44.2326 35.285 44.3458 35.3509 44.417C35.415 44.4863 35.5254 44.521 35.6821 44.521C35.8477 44.521 35.9635 44.4854 36.0294 44.4142C36.0953 44.3431 36.1282 44.2308 36.1282 44.0775V43.9653H36.5637V44.0775Z" fill="white"/>
<path d="M39.1976 47.8009V47.6667C39.3062 47.6375 39.3801 47.5955 39.4193 47.5408C39.4603 47.486 39.4807 47.3701 39.4807 47.1931V46.5552H38.3294V47.1931C38.3294 47.3592 38.349 47.4723 38.3882 47.5326C38.4273 47.591 38.5048 47.6357 38.6206 47.6667V47.8009H37.5814V47.6667C37.6972 47.6339 37.7738 47.5882 37.8112 47.5298C37.8503 47.4696 37.8699 47.3573 37.8699 47.1931V45.7859C37.8699 45.6198 37.8494 45.5066 37.8085 45.4464C37.7693 45.3843 37.6936 45.3414 37.5814 45.3177V45.1836H38.6152V45.3177C38.5066 45.3414 38.4318 45.3834 38.3908 45.4436C38.3499 45.5021 38.3294 45.6161 38.3294 45.7859V46.3115H39.4807V45.7859C39.4807 45.6052 39.4585 45.4875 39.414 45.4327C39.3712 45.3779 39.2991 45.3396 39.1976 45.3177V45.1836H40.2287V45.3177C40.1147 45.3451 40.0381 45.3898 39.999 45.4519C39.9616 45.5121 39.9429 45.6234 39.9429 45.7859V47.1931C39.9429 47.3592 39.9625 47.4723 40.0016 47.5326C40.0408 47.591 40.1165 47.6357 40.2287 47.6667V47.8009H39.1976Z" fill="white"/>
<path d="M42.323 47.4094L42.2829 47.3984C42.128 47.5609 41.982 47.6758 41.8448 47.7434C41.7095 47.8109 41.5652 47.8447 41.4121 47.8447C41.2767 47.8447 41.1574 47.8182 41.0541 47.7653C40.9508 47.7105 40.8716 47.6348 40.8164 47.538C40.7612 47.4395 40.7336 47.3263 40.7336 47.1986C40.7336 46.9321 40.8618 46.7267 41.1182 46.5826C41.3765 46.4365 41.7629 46.3517 42.2776 46.3279V46.15C42.2776 45.9602 42.2598 45.8105 42.2242 45.701C42.1885 45.5915 42.1325 45.5112 42.0559 45.4601C41.9793 45.409 41.8769 45.3834 41.7487 45.3834C41.6098 45.3834 41.4976 45.4208 41.4121 45.4957C41.3284 45.5705 41.2652 45.6827 41.2224 45.8324H40.8725V45.4765C41.0434 45.3852 41.1859 45.3186 41.2999 45.2766C41.4139 45.2328 41.5278 45.1991 41.6418 45.1753C41.7558 45.1498 41.8716 45.137 41.9891 45.137C42.1654 45.137 42.307 45.1662 42.4138 45.2246C42.5207 45.2812 42.6008 45.3688 42.6543 45.4875C42.7077 45.6061 42.7344 45.785 42.7344 46.0241V46.9768C42.7344 47.1119 42.7353 47.2077 42.7371 47.2643C42.7388 47.319 42.7442 47.3701 42.7531 47.4176C42.762 47.465 42.7754 47.5034 42.7932 47.5326C42.811 47.5599 42.8368 47.5837 42.8706 47.6037C42.9062 47.6238 42.9632 47.6448 43.0416 47.6667V47.8009H42.3097L42.323 47.4094ZM42.2776 46.5524C41.9161 46.5561 41.6454 46.6054 41.4655 46.7003C41.2856 46.7952 41.1957 46.9385 41.1957 47.1301C41.1957 47.2341 41.2162 47.3163 41.2572 47.3765C41.2981 47.4367 41.3498 47.4787 41.4121 47.5025C41.4744 47.5244 41.5483 47.5353 41.6338 47.5353C41.7549 47.5353 41.8644 47.5052 41.9624 47.445C42.0621 47.3847 42.1396 47.3081 42.1948 47.215C42.25 47.1219 42.2776 47.0297 42.2776 46.9385V46.5524Z" fill="white"/>
<path d="M46.3246 47.8009V47.6667C46.4297 47.6375 46.5018 47.5955 46.541 47.5408C46.582 47.486 46.6024 47.3701 46.6024 47.1931V46.0377L45.4244 47.2834C45.4262 47.4075 45.4458 47.4952 45.4832 47.5463C45.5206 47.5955 45.5936 47.6357 45.7022 47.6667V47.8009H44.6818V47.6667C44.7975 47.6339 44.8741 47.5882 44.9115 47.5298C44.9507 47.4696 44.9703 47.3573 44.9703 47.1931V45.7859C44.9703 45.6198 44.9498 45.5066 44.9088 45.4464C44.8697 45.3843 44.794 45.3414 44.6818 45.3177V45.1836H45.7022V45.3177C45.5936 45.3414 45.5188 45.3834 45.4778 45.4436C45.4386 45.5039 45.4191 45.618 45.4191 45.7859V46.922L46.5918 45.6736C46.59 45.4655 46.4974 45.3469 46.3139 45.3177V45.1836H47.3344V45.3177C47.2258 45.3414 47.151 45.3834 47.11 45.4436C47.069 45.5021 47.0486 45.6161 47.0486 45.7859V47.1931C47.0486 47.3592 47.0681 47.4723 47.1073 47.5326C47.1465 47.591 47.2222 47.6357 47.3344 47.6667V47.8009H46.3246Z" fill="white"/>
<path d="M51.2051 47.8009V47.6667C51.3227 47.6339 51.3992 47.5873 51.4348 47.5271C51.4705 47.465 51.4883 47.3537 51.4883 47.1931V46.1117C51.4883 45.878 51.4945 45.7092 51.507 45.6052H51.4776L50.7029 47.3683H50.4465L49.7172 45.5614H49.6905C49.7012 45.6964 49.7065 45.8424 49.7065 45.9994V47.1931C49.7065 47.3537 49.7243 47.465 49.7599 47.5271C49.7956 47.5873 49.8721 47.6339 49.9897 47.6667V47.8009H49.1108V47.6667C49.2283 47.6339 49.3049 47.5873 49.3405 47.5271C49.3762 47.465 49.394 47.3537 49.394 47.1931V45.7859C49.394 45.6052 49.3717 45.4875 49.3272 45.4327C49.2844 45.3779 49.2123 45.3396 49.1108 45.3177V45.1836H49.995L50.6602 46.8673L51.3841 45.1836H52.2202V45.3177C52.1062 45.3414 52.0297 45.3862 51.9905 45.4519C51.9513 45.5157 51.9317 45.6271 51.9317 45.7859V47.1931C51.9317 47.361 51.9513 47.4751 51.9905 47.5353C52.0314 47.5955 52.108 47.6393 52.2202 47.6667V47.8009H51.2051Z" fill="white"/>
<path d="M54.9075 47.3354C54.7936 47.4577 54.6885 47.5536 54.5923 47.6229C54.498 47.6923 54.3938 47.747 54.2798 47.7872C54.1658 47.8255 54.0403 47.8447 53.9031 47.8447C53.5363 47.8447 53.2593 47.7324 53.0724 47.5079C52.8854 47.2816 52.7919 46.9485 52.7919 46.5086C52.7919 46.2367 52.8391 45.9967 52.9335 45.7886C53.0296 45.5805 53.1659 45.4199 53.3422 45.3068C53.5185 45.1936 53.7215 45.137 53.9512 45.137C54.1311 45.137 54.2842 45.1662 54.4107 45.2246C54.5371 45.283 54.6377 45.3633 54.7125 45.4655C54.7891 45.5659 54.8479 45.6937 54.8889 45.8488C54.9316 46.0022 54.9556 46.2029 54.961 46.4511H53.278V46.5004C53.278 46.7158 53.3012 46.8974 53.3475 47.0452C53.3956 47.1913 53.4731 47.3062 53.5799 47.3902C53.6885 47.4723 53.8292 47.5134 54.002 47.5134C54.148 47.5134 54.2789 47.486 54.3947 47.4313C54.5122 47.3747 54.6288 47.2834 54.7446 47.1575L54.9075 47.3354ZM54.4588 46.2239C54.4481 46.0268 54.424 45.8662 54.3866 45.7421C54.3492 45.6161 54.2931 45.5203 54.2183 45.4546C54.1436 45.3871 54.0456 45.3533 53.9245 45.3533C53.7411 45.3533 53.5942 45.429 53.4837 45.5805C53.3751 45.7302 53.311 45.9447 53.2914 46.2239H54.4588Z" fill="white"/>
<path d="M57.4854 43.8831H57.7365C57.7133 44.2062 57.6269 44.4161 57.4774 44.5128C57.3278 44.6077 57.0873 44.667 56.7561 44.6908C56.4427 44.7163 56.2147 44.8121 56.0722 44.9782C55.9316 45.1425 55.8523 45.4345 55.8345 45.8543L55.8772 45.8762C56.0998 45.513 56.4106 45.3314 56.8095 45.3314C57.1497 45.3314 57.4106 45.44 57.5922 45.6572C57.7739 45.8744 57.8647 46.1746 57.8647 46.5579C57.8647 46.9576 57.7587 47.2725 57.5468 47.5025C57.3367 47.7306 57.0419 47.8447 56.6626 47.8447C56.2673 47.8447 55.9787 47.7096 55.7971 47.4395C55.6155 47.1694 55.5246 46.7587 55.5246 46.2075C55.5246 45.0138 55.9039 44.3695 56.6626 44.2746C56.96 44.2345 57.1604 44.1943 57.2636 44.1542C57.3687 44.114 57.4426 44.0237 57.4854 43.8831ZM56.6947 45.5532C56.2477 45.5532 56.0242 45.8899 56.0242 46.5634C56.0242 46.8992 56.0856 47.1611 56.2085 47.3491C56.3331 47.5353 56.505 47.6284 56.724 47.6284C56.9253 47.6284 57.082 47.5399 57.1942 47.3628C57.3064 47.184 57.3625 46.9403 57.3625 46.6318C57.3625 46.2832 57.3037 46.0168 57.1862 45.8324C57.0686 45.6462 56.9048 45.5532 56.6947 45.5532Z" fill="white"/>
<path d="M60.5387 47.3354C60.4247 47.4577 60.3196 47.5536 60.2235 47.6229C60.1291 47.6923 60.0249 47.747 59.9109 47.7872C59.7969 47.8255 59.6714 47.8447 59.5343 47.8447C59.1674 47.8447 58.8905 47.7324 58.7035 47.5079C58.5165 47.2816 58.423 46.9485 58.423 46.5086C58.423 46.2367 58.4702 45.9967 58.5646 45.7886C58.6607 45.5805 58.797 45.4199 58.9733 45.3068C59.1496 45.1936 59.3526 45.137 59.5823 45.137C59.7622 45.137 59.9154 45.1662 60.0418 45.2246C60.1683 45.283 60.2689 45.3633 60.3437 45.4655C60.4202 45.5659 60.479 45.6937 60.52 45.8488C60.5627 46.0022 60.5868 46.2029 60.5921 46.4511H58.9092V46.5004C58.9092 46.7158 58.9323 46.8974 58.9786 47.0452C59.0267 47.1913 59.1042 47.3062 59.211 47.3902C59.3197 47.4723 59.4604 47.5134 59.6331 47.5134C59.7791 47.5134 59.91 47.486 60.0258 47.4313C60.1433 47.3747 60.26 47.2834 60.3757 47.1575L60.5387 47.3354ZM60.0899 46.2239C60.0792 46.0268 60.0552 45.8662 60.0178 45.7421C59.9804 45.6161 59.9243 45.5203 59.8495 45.4546C59.7747 45.3871 59.6767 45.3533 59.5556 45.3533C59.3722 45.3533 59.2253 45.429 59.1149 45.5805C59.0062 45.7302 58.9421 45.9447 58.9225 46.2239H60.0899Z" fill="white"/>
<path d="M62.5502 47.8009V47.6667C62.6642 47.6357 62.7389 47.5901 62.7746 47.5298C62.812 47.4678 62.8307 47.3555 62.8307 47.1931V45.4053H62.2617C62.2029 46.0241 62.1174 46.5305 62.0052 46.9248C61.893 47.319 61.7791 47.5709 61.6633 47.6804C61.5475 47.7899 61.4131 47.8447 61.2599 47.8447C61.121 47.8447 61.0062 47.8301 60.9153 47.8009V47.215H61.1504C61.1611 47.3665 61.2163 47.4422 61.316 47.4422C61.4763 47.4422 61.6152 47.2141 61.7328 46.7578C61.8503 46.3015 61.9091 45.9419 61.9091 45.6791C61.9091 45.4619 61.8262 45.3414 61.6606 45.3177V45.1836H63.576V45.3177C63.4638 45.3414 63.3881 45.3852 63.3489 45.4491C63.3115 45.5112 63.2928 45.6234 63.2928 45.7859V47.1931C63.2928 47.3537 63.3106 47.465 63.3462 47.5271C63.3818 47.5873 63.4584 47.6339 63.576 47.6667V47.8009H62.5502Z" fill="white"/>
<path d="M65.8038 47.8009V47.6667C65.9089 47.6375 65.981 47.5955 66.0202 47.5408C66.0612 47.486 66.0816 47.3701 66.0816 47.1931V46.0377L64.9036 47.2834C64.9054 47.4075 64.925 47.4952 64.9624 47.5463C64.9998 47.5955 65.0728 47.6357 65.1814 47.6667V47.8009H64.161V47.6667C64.2767 47.6339 64.3533 47.5882 64.3907 47.5298C64.4299 47.4696 64.4495 47.3573 64.4495 47.1931V45.7859C64.4495 45.6198 64.429 45.5066 64.388 45.4464C64.3489 45.3843 64.2732 45.3414 64.161 45.3177V45.1836H65.1814V45.3177C65.0728 45.3414 64.998 45.3834 64.957 45.4436C64.9178 45.5039 64.8983 45.618 64.8983 45.7859V46.922L66.071 45.6736C66.0692 45.4655 65.9766 45.3469 65.7931 45.3177V45.1836H66.8136V45.3177C66.705 45.3414 66.6302 45.3834 66.5892 45.4436C66.5482 45.5021 66.5278 45.6161 66.5278 45.7859V47.1931C66.5278 47.3592 66.5473 47.4723 66.5865 47.5326C66.6257 47.591 66.7014 47.6357 66.8136 47.6667V47.8009H65.8038Z" fill="white"/>
<path fill-rule="evenodd" clip-rule="evenodd" d="M4.60884 19.2907C4.26407 24.7584 11.2957 31.2532 16.7619 30.909C19.0664 30.7638 20.5901 30.5747 22.7519 29.8357C27.105 28.3476 32.3897 23.4513 37.3492 19.7494C39.3858 18.2291 41.6586 17.1182 43.5717 16.1904C43.7351 16.1111 40.4707 17.0894 37.2461 19.3163C33.2813 22.0545 28.6889 26.2664 25.1546 28.1205C22.3465 29.5936 19.4395 29.654 17.9501 29.7441C14.9859 29.9235 12.4667 29.1606 9.98253 27.729C8.50187 26.8757 7.37852 25.5561 6.51404 24.262C5.02397 22.0317 4.41888 19.4467 4.60884 19.2907Z" fill="white" stroke="white" stroke-width="0.75" stroke-miterlimit="22.9256"/>
</svg>
