<svg width="57" height="57" viewBox="0 0 57 57" fill="none" xmlns="http://www.w3.org/2000/svg">
<path d="M35.5398 24.3905C35.2109 24.7173 34.7661 24.9007 34.3025 24.9007C33.8389 24.9007 33.3941 24.7173 33.0652 24.3905L31.6122 22.9375C31.2851 22.6087 31.1015 22.1637 31.1015 21.6999C31.1015 21.2361 31.2851 20.7912 31.6122 20.4623L34.9011 17.1718C34.9076 17.1655 34.9124 17.1578 34.9152 17.1492C34.918 17.1406 34.9186 17.1314 34.917 17.1225C34.9153 17.1137 34.9115 17.1053 34.9059 17.0983C34.9003 17.0912 34.893 17.0857 34.8847 17.0821C32.7617 16.1721 30.0093 16.6359 28.2615 18.3711C26.5891 20.0309 26.494 22.5273 27.1065 24.7061C27.1935 25.0158 27.1933 25.3435 27.1058 25.6531C27.0184 25.9626 26.8472 26.2421 26.611 26.4605L17.5001 34.7812C17.2313 35.0195 17.014 35.3103 16.8618 35.6357C16.7095 35.9611 16.6254 36.3142 16.6146 36.6732C16.6038 37.0323 16.6666 37.3898 16.7991 37.7238C16.9316 38.0577 17.1309 38.361 17.385 38.615C17.639 38.869 17.9423 39.0684 18.2762 39.2009C18.6102 39.3334 18.9677 39.3962 19.3267 39.3854C19.6858 39.3746 20.0389 39.2905 20.3643 39.1382C20.6897 38.9859 20.9805 38.7687 21.2188 38.4999L29.633 29.3671C29.8487 29.1349 30.1234 28.9658 30.4279 28.8778C30.7323 28.7899 31.0549 28.7864 31.3612 28.8678C33.5235 29.447 35.9844 29.3381 37.6349 27.709C39.4117 25.959 39.7951 22.8659 38.9337 21.0956C38.9299 21.0879 38.9242 21.0812 38.9172 21.0761C38.9102 21.0709 38.9022 21.0675 38.8936 21.0662C38.8851 21.0648 38.8763 21.0654 38.8681 21.0681C38.8598 21.0707 38.8524 21.0753 38.8462 21.0814L35.5398 24.3905Z" stroke="white" stroke-width="1.75" stroke-miterlimit="10" stroke-linecap="round"/>
<path d="M19.25 37.625C19.7332 37.625 20.125 37.2332 20.125 36.75C20.125 36.2668 19.7332 35.875 19.25 35.875C18.7668 35.875 18.375 36.2668 18.375 36.75C18.375 37.2332 18.7668 37.625 19.25 37.625Z" fill="white"/>
<circle cx="28.5" cy="28.5" r="28" stroke="white"/>
</svg>
