<svg width="28" height="28" viewBox="0 0 28 28" fill="none" xmlns="http://www.w3.org/2000/svg">
<path d="M13.9962 6.81665C10.0211 6.81665 6.81302 10.0248 6.81302 14C6.81302 17.9752 10.0211 21.1834 13.9962 21.1834C17.9713 21.1834 21.1795 17.9752 21.1795 14C21.1795 10.0248 17.9713 6.81665 13.9962 6.81665ZM13.9962 18.6687C11.4255 18.6687 9.32767 16.5707 9.32767 14C9.32767 11.4293 11.4255 9.33135 13.9962 9.33135C16.5669 9.33135 18.6648 11.4293 18.6648 14C18.6648 16.5707 16.5669 18.6687 13.9962 18.6687ZM21.4736 4.84832C20.5455 4.84832 19.796 5.59782 19.796 6.52595C19.796 7.45408 20.5455 8.20358 21.4736 8.20358C22.4018 8.20358 23.1513 7.45758 23.1513 6.52595C23.1515 6.30556 23.1083 6.08729 23.0241 5.88362C22.9399 5.67996 22.8163 5.4949 22.6605 5.33907C22.5047 5.18323 22.3196 5.05967 22.116 4.97546C21.9123 4.89124 21.694 4.84804 21.4736 4.84832ZM27.9984 14C27.9984 12.0667 28.0159 10.1509 27.9074 8.2211C27.7988 5.97958 27.2875 3.99024 25.6484 2.35113C24.0058 0.708519 22.02 0.200677 19.7785 0.0921032C17.8453 -0.0164701 15.9295 0.00104176 13.9997 0.00104176C12.0665 0.00104176 10.1507 -0.0164701 8.22094 0.0921032C5.97947 0.200677 3.99016 0.712022 2.35109 2.35113C0.708507 3.99374 0.200673 5.97958 0.0921015 8.2211C-0.0164698 10.1544 0.00104174 12.0702 0.00104174 14C0.00104174 15.9298 -0.0164698 17.8491 0.0921015 19.7789C0.200673 22.0204 0.712009 24.0098 2.35109 25.6489C3.99367 27.2915 5.97947 27.7993 8.22094 27.9079C10.1542 28.0165 12.07 27.999 13.9997 27.999C15.933 27.999 17.8488 28.0165 19.7785 27.9079C22.02 27.7993 24.0093 27.288 25.6484 25.6489C27.291 24.0063 27.7988 22.0204 27.9074 19.7789C28.0195 17.8491 27.9984 15.9333 27.9984 14ZM24.9164 22.2586C24.6607 22.896 24.3525 23.3723 23.8587 23.8627C23.3649 24.3565 22.8921 24.6647 22.2547 24.9204C20.4125 25.6524 16.0381 25.4878 13.9962 25.4878C11.9544 25.4878 7.57652 25.6524 5.73431 24.9239C5.09689 24.6682 4.62058 24.36 4.13025 23.8662C3.63643 23.3723 3.32823 22.8995 3.07256 22.2621C2.34408 20.4163 2.50869 16.0419 2.50869 14C2.50869 11.9581 2.34408 7.58016 3.07256 5.73792C3.32823 5.10049 3.63643 4.62417 4.13025 4.13383C4.62408 3.6435 5.09689 3.33179 5.73431 3.07612C7.57652 2.34763 11.9544 2.51224 13.9962 2.51224C16.0381 2.51224 20.416 2.34763 22.2582 3.07612C22.8956 3.33179 23.3719 3.64 23.8622 4.13383C24.356 4.62767 24.6642 5.10049 24.9199 5.73792C25.6484 7.58016 25.4838 11.9581 25.4838 14C25.4838 16.0419 25.6484 20.4163 24.9164 22.2586Z" fill="white"/>
</svg>
