<svg width="57" height="57" viewBox="0 0 57 57" fill="none" xmlns="http://www.w3.org/2000/svg">
<path d="M41.18 29.5338L38.555 23.4087C38.488 23.2506 38.376 23.1157 38.2328 23.0207C38.0897 22.9258 37.9218 22.8751 37.75 22.875H35.125V21.125C35.125 20.8929 35.0328 20.6704 34.8687 20.5063C34.7046 20.3422 34.4821 20.25 34.25 20.25H17.625C17.3929 20.25 17.1704 20.3422 17.0063 20.5063C16.8422 20.6704 16.75 20.8929 16.75 21.125V36C16.75 36.2321 16.8422 36.4546 17.0063 36.6187C17.1704 36.7828 17.3929 36.875 17.625 36.875H19.4975C19.699 37.6164 20.1389 38.271 20.7493 38.7376C21.3597 39.2043 22.1067 39.4571 22.875 39.4571C23.6433 39.4571 24.3903 39.2043 25.0007 38.7376C25.6111 38.271 26.051 37.6164 26.2525 36.875H31.7475C31.949 37.6164 32.3889 38.271 32.9993 38.7376C33.6097 39.2043 34.3567 39.4571 35.125 39.4571C35.8933 39.4571 36.6403 39.2043 37.2507 38.7376C37.8611 38.271 38.301 37.6164 38.5025 36.875H40.375C40.6071 36.875 40.8296 36.7828 40.9937 36.6187C41.1578 36.4546 41.25 36.2321 41.25 36V29.875C41.2498 29.7577 41.226 29.6417 41.18 29.5338ZM35.125 24.625H37.1725L39.045 29H35.125V24.625ZM22.875 37.75C22.5289 37.75 22.1905 37.6474 21.9028 37.4551C21.615 37.2628 21.3907 36.9895 21.2582 36.6697C21.1258 36.3499 21.0911 35.9981 21.1586 35.6586C21.2261 35.3191 21.3928 35.0073 21.6376 34.7626C21.8823 34.5178 22.1941 34.3511 22.5336 34.2836C22.8731 34.2161 23.2249 34.2508 23.5447 34.3832C23.8645 34.5157 24.1378 34.74 24.3301 35.0278C24.5224 35.3155 24.625 35.6539 24.625 36C24.625 36.4641 24.4406 36.9092 24.1124 37.2374C23.7842 37.5656 23.3391 37.75 22.875 37.75ZM31.7475 35.125H26.2525C26.051 34.3836 25.6111 33.729 25.0007 33.2624C24.3903 32.7957 23.6433 32.5429 22.875 32.5429C22.1067 32.5429 21.3597 32.7957 20.7493 33.2624C20.1389 33.729 19.699 34.3836 19.4975 35.125H18.5V22H33.375V32.99C32.9766 33.2212 32.6277 33.5289 32.3484 33.8953C32.0691 34.2616 31.8649 34.6795 31.7475 35.125ZM35.125 37.75C34.7789 37.75 34.4405 37.6474 34.1528 37.4551C33.865 37.2628 33.6407 36.9895 33.5082 36.6697C33.3758 36.3499 33.3411 35.9981 33.4086 35.6586C33.4762 35.3191 33.6428 35.0073 33.8876 34.7626C34.1323 34.5178 34.4441 34.3511 34.7836 34.2836C35.1231 34.2161 35.4749 34.2508 35.7947 34.3832C36.1145 34.5157 36.3878 34.74 36.5801 35.0278C36.7724 35.3155 36.875 35.6539 36.875 36C36.875 36.4641 36.6906 36.9092 36.3624 37.2374C36.0342 37.5656 35.5891 37.75 35.125 37.75ZM39.5 35.125H38.5025C38.309 34.3756 37.8726 33.7114 37.2614 33.2365C36.6503 32.7615 35.899 32.5025 35.125 32.5V30.75H39.5V35.125Z" fill="white"/>
<circle cx="28.5" cy="28.5" r="28" stroke="white"/>
</svg>
