<svg width="57" height="57" viewBox="0 0 57 57" fill="none" xmlns="http://www.w3.org/2000/svg">
<path d="M37.875 17.5264C37.2056 17.5264 36.5476 17.7889 36.0427 18.2929L27.375 26.9326L27.1825 27.1251L27.13 27.399L26.5262 30.4615L26.255 31.746L27.5386 31.4747L30.6011 30.871L30.875 30.8185L31.0675 30.626L39.7072 21.9582C40.0691 21.5951 40.3154 21.133 40.4151 20.6302C40.5148 20.1274 40.4634 19.6063 40.2675 19.1326C40.0716 18.6588 39.7399 18.2537 39.3141 17.9682C38.8884 17.6827 38.3876 17.5296 37.875 17.5281V17.5264ZM37.875 19.2239C38.0806 19.2239 38.281 19.3289 38.477 19.524C38.8672 19.9142 38.8672 20.336 38.477 20.7271L30 29.2024L28.495 29.5034L28.7969 27.9984L37.2739 19.5214C37.469 19.3262 37.6694 19.2212 37.875 19.2212V19.2239ZM19.5 21.0001V38.5001H37V26.9606L35.25 28.7106V36.7501H21.25V22.7501H29.2895L31.0395 21.0001H19.5Z" fill="white"/>
<circle cx="28.5" cy="28.5" r="28" stroke="white"/>
</svg>
