<svg width="57" height="57" viewBox="0 0 57 57" fill="none" xmlns="http://www.w3.org/2000/svg">
<g clip-path="url(#clip0)">
<path d="M28 14.9999C23.94 14.9999 19.1634 15.9659 15.085 18.0668L14.4515 18.3896V19.1098C14.4515 23.4393 14.5329 34.9928 27.4024 42.6394L28 42.9999L28.5977 42.6394C41.4672 34.9928 41.5485 23.4393 41.5485 19.1098V18.3993L40.9194 18.0711C36.8909 15.9606 32.06 14.999 28 14.999V14.9999ZM28 17.3475C31.4729 17.3475 35.6834 18.2356 39.1694 19.913C39.1598 24.4481 38.682 33.3801 28 40.129C17.318 33.3801 16.835 24.4481 16.8307 19.913C20.3718 18.2321 24.5272 17.3475 28 17.3475ZM33.8739 23.8409C33.5685 23.8505 33.3095 24.0413 33.1634 24.1874L26.8879 30.7L24.5359 27.8834C23.4238 26.5945 21.8978 27.592 21.5469 27.8239L27.0025 34.1589L34.4532 24.0684C34.3764 23.9943 34.2859 23.9361 34.1866 23.8971C34.0874 23.858 33.9814 23.8389 33.8748 23.8409H33.8739Z" fill="white"/>
</g>
<circle cx="28.5" cy="28.5" r="28" stroke="white"/>
<defs>
<clipPath id="clip0">
<rect width="28" height="28" fill="white" transform="translate(14 15)"/>
</clipPath>
</defs>
</svg>
