<svg width="14" height="29" viewBox="0 0 14 29" fill="none" xmlns="http://www.w3.org/2000/svg">
<path d="M11.6771 28.9999C11.3782 29.0009 11.083 28.9326 10.8129 28.8C10.5429 28.6674 10.3051 28.4738 10.1168 28.2335L0.455055 15.8061C0.160839 15.4355 -2.61755e-06 14.9706 -2.53366e-06 14.4909C-2.44978e-06 14.0111 0.160839 13.5462 0.455056 13.1756L10.4569 0.74824C10.7964 0.325259 11.2843 0.0592625 11.8133 0.00876649C12.3422 -0.0417295 12.8689 0.127411 13.2774 0.47898C13.6859 0.830548 13.9428 1.33575 13.9915 1.88343C14.0403 2.43112 13.877 2.97644 13.5374 3.39942L4.5958 14.5012L13.2374 25.603C13.482 25.9071 13.6373 26.2773 13.6851 26.6699C13.7329 27.0625 13.671 27.461 13.5069 27.8184C13.3428 28.1757 13.0832 28.4769 12.7589 28.6863C12.4346 28.8957 12.0592 29.0045 11.6771 28.9999Z" fill="white"/>
</svg>
