<svg width="14" height="29" viewBox="0 0 14 29" fill="none" xmlns="http://www.w3.org/2000/svg">
<path d="M2.32292 0.000142165C2.62176 -0.000910718 2.91704 0.0673819 3.18704 0.2C3.45705 0.33262 3.69493 0.526195 3.8832 0.766499L13.5449 13.1939C13.8392 13.5645 14 14.0294 14 14.5091C14 14.9889 13.8392 15.4538 13.5449 15.8244L3.54314 28.2518C3.2036 28.6747 2.71569 28.9407 2.18674 28.9912C1.6578 29.0417 1.13114 28.8726 0.722633 28.521C0.314126 28.1695 0.0572318 27.6643 0.00846369 27.1166C-0.0403044 26.5689 0.123048 26.0236 0.462586 25.6006L9.4042 14.4988L0.762639 3.39696C0.518029 3.09294 0.362647 2.72272 0.314879 2.33013C0.267111 1.93753 0.328956 1.53897 0.493097 1.18162C0.657238 0.824281 0.916805 0.523099 1.24108 0.313718C1.56536 0.104337 1.94078 -0.00448122 2.32292 0.000142165Z" fill="white"/>
</svg>
